<svg width="148" height="148" viewBox="0 0 148 148" fill="none" xmlns="http://www.w3.org/2000/svg">
<circle cx="74" cy="74" r="74" fill="#37B34A"/>
<path fill-rule="evenodd" clip-rule="evenodd" d="M107.467 50.0515C108.239 50.8705 108.842 51.8335 109.242 52.8856C109.641 53.9377 109.83 55.0582 109.796 56.1831C109.763 57.308 109.508 58.4153 109.046 59.4417C108.585 60.4681 107.926 61.3935 107.106 62.1651L67.9553 99.0594C66.3192 100.601 64.143 101.438 61.8957 101.389C59.6484 101.341 57.5101 100.411 55.9419 98.801L39.4284 81.8368C37.8434 80.2084 36.9701 78.017 37.0008 75.7448C37.0314 73.4726 37.9635 71.3056 39.5919 69.7206C41.2202 68.1355 43.4116 67.2623 45.6838 67.2929C47.956 67.3236 50.123 68.2556 51.7081 69.884L62.3401 80.806L95.3591 49.693C97.0127 48.1346 99.2176 47.2969 101.489 47.3641C103.76 47.4313 105.912 48.398 107.47 50.0515" fill="white"/>
</svg>
