<svg width="148" height="148" viewBox="0 0 148 148" fill="none" xmlns="http://www.w3.org/2000/svg">
<circle cx="74" cy="74" r="74" fill="#DD2E44"/>
<path d="M80.7359 73.2279L106.5 47.4654C107.459 46.4725 107.99 45.1427 107.978 43.7623C107.966 42.382 107.412 41.0616 106.436 40.0855C105.46 39.1094 104.14 38.5557 102.76 38.5437C101.379 38.5318 100.049 39.0624 99.0564 40.0214L73.2918 65.7839L47.5293 40.0214C46.5421 39.0344 45.2032 38.48 43.8073 38.48C42.4113 38.48 41.0725 39.0344 40.0852 40.0214C39.0983 41.0086 38.5439 42.3474 38.5439 43.7434C38.5439 45.1394 39.0983 46.4782 40.0852 47.4654L65.8478 73.2279L40.0263 99.0515C39.2885 99.7871 38.7857 100.725 38.5818 101.747C38.3778 102.769 38.4818 103.828 38.8806 104.79C39.2794 105.753 39.955 106.575 40.8218 107.153C41.6886 107.731 42.7075 108.039 43.7494 108.037C45.0971 108.037 46.4448 107.523 47.4724 106.496L73.2939 80.672L99.0564 106.434C99.5454 106.923 100.126 107.311 100.765 107.576C101.403 107.84 102.088 107.976 102.78 107.976C103.82 107.976 104.838 107.667 105.703 107.089C106.569 106.51 107.244 105.688 107.642 104.727C108.04 103.765 108.145 102.707 107.942 101.686C107.739 100.665 107.238 99.7268 106.503 98.9904L80.7359 73.2279Z" fill="#FCFCFE"/>
</svg>
