<svg width="108" height="39" viewBox="0 0 108 39" fill="none" xmlns="http://www.w3.org/2000/svg">
<path d="M42.0905 23.4434L45.0921 13.7605H47.6141L43.3639 25.8H41.6853L42.0905 23.4434ZM39.3204 13.7605L42.3055 23.4434L42.7355 25.8H41.0403L36.8066 13.7605H39.3204ZM52.0053 25.9654C51.3272 25.9654 50.7181 25.8552 50.1778 25.6347C49.6376 25.4142 49.1773 25.1082 48.7969 24.7168C48.4221 24.3199 48.1327 23.8596 47.9287 23.3359C47.7302 22.8067 47.631 22.2389 47.631 21.6325V21.3017C47.631 20.6127 47.7302 19.987 47.9287 19.4247C48.1271 18.8569 48.4083 18.369 48.7721 17.9611C49.136 17.5532 49.5715 17.2389 50.0786 17.0184C50.5858 16.7979 51.1453 16.6877 51.7572 16.6877C52.3912 16.6877 52.9507 16.7952 53.4358 17.0102C53.9209 17.2196 54.3261 17.5173 54.6513 17.9032C54.9766 18.2891 55.2219 18.7522 55.3873 19.2924C55.5527 19.8271 55.6353 20.4197 55.6353 21.0702V21.9881H48.6233V20.4831H53.4854V20.3177C53.4744 19.9704 53.4082 19.6535 53.287 19.3668C53.1657 19.0746 52.9783 18.8431 52.7247 18.6722C52.4711 18.4958 52.1431 18.4076 51.7407 18.4076C51.4154 18.4076 51.1315 18.4793 50.889 18.6226C50.6519 18.7604 50.4535 18.9589 50.2936 19.218C50.1393 19.4715 50.0235 19.7747 49.9463 20.1276C49.8691 20.4804 49.8305 20.8718 49.8305 21.3017V21.6325C49.8305 22.0074 49.8802 22.3547 49.9794 22.6744C50.0841 22.9941 50.2357 23.2725 50.4342 23.5096C50.6381 23.7411 50.8807 23.923 51.1618 24.0553C51.4485 24.1821 51.7737 24.2455 52.1376 24.2455C52.5951 24.2455 53.0086 24.1573 53.3779 23.9809C53.7528 23.799 54.078 23.5316 54.3537 23.1788L55.4534 24.3199C55.266 24.5955 55.0124 24.8601 54.6927 25.1137C54.3785 25.3673 53.9981 25.574 53.5516 25.7339C53.105 25.8883 52.5896 25.9654 52.0053 25.9654ZM58.9433 18.6805V25.8H56.7603V16.8531H58.8275L58.9433 18.6805ZM61.6637 16.7952L61.6307 18.8293C61.5094 18.8073 61.3716 18.7907 61.2172 18.7797C61.0684 18.7687 60.9278 18.7632 60.7955 18.7632C60.4592 18.7632 60.1643 18.81 59.9107 18.9037C59.6571 18.992 59.4449 19.1215 59.274 19.2924C59.1086 19.4633 58.9818 19.6728 58.8936 19.9208C58.8054 20.1634 58.7558 20.439 58.7448 20.7477L58.2735 20.6898C58.2735 20.122 58.3314 19.5956 58.4471 19.1105C58.5629 18.6254 58.731 18.2009 58.9515 17.8371C59.172 17.4732 59.4477 17.1921 59.7784 16.9936C60.1147 16.7897 60.5006 16.6877 60.9361 16.6877C61.0573 16.6877 61.1869 16.6987 61.3247 16.7207C61.468 16.7373 61.581 16.7621 61.6637 16.7952ZM64.8393 16.8531V25.8H62.6481V16.8531H64.8393ZM62.4992 14.5129C62.4992 14.1877 62.6095 13.9176 62.83 13.7026C63.056 13.4876 63.3592 13.3801 63.7396 13.3801C64.1199 13.3801 64.4204 13.4876 64.6409 13.7026C64.8669 13.9176 64.9799 14.1877 64.9799 14.5129C64.9799 14.8327 64.8669 15.1 64.6409 15.315C64.4204 15.53 64.1199 15.6375 63.7396 15.6375C63.3592 15.6375 63.056 15.53 62.83 15.315C62.6095 15.1 62.4992 14.8327 62.4992 14.5129ZM67.7421 13.7605H69.7101L73.0011 22.8232L76.2839 13.7605H78.2602L73.7867 25.8H72.2073L67.7421 13.7605ZM66.7498 13.7605H68.6765L69.0238 22.0873V25.8H66.7498V13.7605ZM77.3175 13.7605H79.2524V25.8H76.9785V22.0873L77.3175 13.7605ZM85.0824 25.9654C84.4043 25.9654 83.7952 25.8552 83.2549 25.6347C82.7147 25.4142 82.2544 25.1082 81.874 24.7168C81.4992 24.3199 81.2098 23.8596 81.0058 23.3359C80.8073 22.8067 80.7081 22.2389 80.7081 21.6325V21.3017C80.7081 20.6127 80.8073 19.987 81.0058 19.4247C81.2042 18.8569 81.4854 18.369 81.8492 17.9611C82.2131 17.5532 82.6486 17.2389 83.1557 17.0184C83.6629 16.7979 84.2224 16.6877 84.8343 16.6877C85.4683 16.6877 86.0278 16.7952 86.5129 17.0102C86.998 17.2196 87.4032 17.5173 87.7284 17.9032C88.0537 18.2891 88.299 18.7522 88.4644 19.2924C88.6298 19.8271 88.7124 20.4197 88.7124 21.0702V21.9881H81.7004V20.4831H86.5625V20.3177C86.5515 19.9704 86.4853 19.6535 86.3641 19.3668C86.2428 19.0746 86.0554 18.8431 85.8018 18.6722C85.5482 18.4958 85.2202 18.4076 84.8178 18.4076C84.4925 18.4076 84.2086 18.4793 83.9661 18.6226C83.729 18.7604 83.5306 18.9589 83.3707 19.218C83.2164 19.4715 83.1006 19.7747 83.0234 20.1276C82.9462 20.4804 82.9076 20.8718 82.9076 21.3017V21.6325C82.9076 22.0074 82.9573 22.3547 83.0565 22.6744C83.1612 22.9941 83.3128 23.2725 83.5113 23.5096C83.7152 23.7411 83.9578 23.923 84.2389 24.0553C84.5256 24.1821 84.8508 24.2455 85.2147 24.2455C85.6722 24.2455 86.0857 24.1573 86.455 23.9809C86.8299 23.799 87.1551 23.5316 87.4308 23.1788L88.5305 24.3199C88.3431 24.5955 88.0895 24.8601 87.7698 25.1137C87.4556 25.3673 87.0752 25.574 86.6287 25.7339C86.1821 25.8883 85.6667 25.9654 85.0824 25.9654ZM95.2039 23.8982V13.0989H97.4034V25.8H95.4189L95.2039 23.8982ZM89.457 21.434V21.2604C89.457 20.5768 89.5342 19.9567 89.6885 19.3999C89.8484 18.8376 90.0799 18.3552 90.3831 17.9528C90.6863 17.5504 91.0529 17.2389 91.4829 17.0184C91.9184 16.7979 92.4118 16.6877 92.963 16.6877C93.4977 16.6877 93.9636 16.7952 94.3605 17.0102C94.7629 17.2252 95.1047 17.5311 95.3858 17.928C95.6725 18.3249 95.9012 18.7963 96.0721 19.342C96.243 19.8822 96.3671 20.4776 96.4442 21.1281V21.5994C96.3671 22.2334 96.243 22.815 96.0721 23.3442C95.9012 23.8734 95.6725 24.3364 95.3858 24.7334C95.1047 25.1248 94.7629 25.4279 94.3605 25.6429C93.958 25.8579 93.4867 25.9654 92.9465 25.9654C92.4007 25.9654 91.9101 25.8524 91.4746 25.6264C91.0446 25.4004 90.678 25.0834 90.3748 24.6755C90.0772 24.2675 89.8484 23.7879 89.6885 23.2367C89.5342 22.6854 89.457 22.0845 89.457 21.434ZM91.6483 21.2604V21.434C91.6483 21.8199 91.6813 22.181 91.7475 22.5173C91.8136 22.8535 91.9211 23.1512 92.07 23.4103C92.2188 23.6639 92.409 23.8624 92.6405 24.0057C92.8776 24.149 93.1642 24.2207 93.5005 24.2207C93.9305 24.2207 94.2833 24.127 94.5589 23.9395C94.8401 23.7466 95.0578 23.4847 95.2122 23.154C95.3665 22.8177 95.4657 22.4401 95.5098 22.0211V20.7229C95.4878 20.3922 95.4299 20.0862 95.3362 19.8051C95.248 19.5239 95.1212 19.2814 94.9558 19.0774C94.796 18.8734 94.5975 18.7136 94.3605 18.5978C94.1234 18.482 93.8423 18.4241 93.517 18.4241C93.1808 18.4241 92.8941 18.4986 92.6571 18.6474C92.42 18.7907 92.2271 18.992 92.0782 19.251C91.9294 19.5101 91.8191 19.8106 91.7475 20.1524C91.6813 20.4941 91.6483 20.8635 91.6483 21.2604ZM103.961 23.3524C103.961 23.165 103.911 22.9969 103.812 22.848C103.713 22.6992 103.526 22.5641 103.25 22.4429C102.98 22.3161 102.583 22.1975 102.059 22.0873C101.596 21.9881 101.169 21.864 100.777 21.7152C100.386 21.5663 100.05 21.3872 99.7687 21.1777C99.4875 20.9627 99.267 20.7119 99.1072 20.4252C98.9528 20.1331 98.8756 19.7968 98.8756 19.4164C98.8756 19.0471 98.9556 18.6998 99.1154 18.3745C99.2753 18.0438 99.5068 17.7544 99.81 17.5063C100.113 17.2527 100.483 17.0543 100.918 16.9109C101.354 16.7621 101.844 16.6877 102.39 16.6877C103.151 16.6877 103.804 16.8117 104.35 17.0598C104.901 17.3078 105.323 17.6496 105.615 18.0851C105.907 18.5151 106.053 19.0002 106.053 19.5405H103.87C103.87 19.3034 103.815 19.0884 103.705 18.8955C103.6 18.7025 103.437 18.5482 103.217 18.4324C102.996 18.3111 102.718 18.2505 102.382 18.2505C102.078 18.2505 101.822 18.3001 101.613 18.3993C101.409 18.4986 101.254 18.6281 101.15 18.788C101.045 18.9478 100.992 19.1243 100.992 19.3172C100.992 19.4605 101.02 19.5901 101.075 19.7058C101.136 19.8161 101.232 19.9181 101.365 20.0118C101.497 20.1055 101.676 20.1909 101.902 20.2681C102.134 20.3453 102.418 20.4197 102.754 20.4914C103.421 20.6237 104.002 20.8001 104.499 21.0206C105 21.2356 105.392 21.5222 105.673 21.8806C105.954 22.2389 106.094 22.6964 106.094 23.2532C106.094 23.6501 106.009 24.014 105.838 24.3447C105.667 24.67 105.419 24.9539 105.094 25.1964C104.769 25.439 104.38 25.6292 103.928 25.767C103.476 25.8993 102.966 25.9654 102.398 25.9654C101.577 25.9654 100.882 25.8193 100.314 25.5272C99.7466 25.2295 99.3167 24.8546 99.0245 24.4026C98.7323 23.945 98.5862 23.471 98.5862 22.9803H100.678C100.695 23.3276 100.789 23.606 100.959 23.8155C101.13 24.025 101.345 24.1766 101.604 24.2703C101.869 24.3585 102.147 24.4026 102.44 24.4026C102.77 24.4026 103.049 24.3585 103.275 24.2703C103.501 24.1766 103.672 24.0525 103.787 23.8982C103.903 23.7383 103.961 23.5564 103.961 23.3524Z" fill="#007BFF"/>
<path d="M21.3537 6.81299L9.83844 11.9309V19.6077C9.83844 26.7088 14.7516 33.3493 21.3537 34.9614C27.9558 33.3493 32.869 26.7088 32.869 19.6077V11.9309L21.3537 6.81299Z" fill="#007BFF"/>
<rect x="19.067" y="31.3169" width="11.2812" height="19.6709" rx="5.6406" transform="rotate(-133.987 19.067 31.3169)" fill="#FCFCFC"/>
<g clip-path="url(#clip0_633_2549)">
<path d="M21.6803 16.6406C21.7661 16.6405 21.8511 16.6573 21.9303 16.6902C22.0096 16.723 22.0816 16.7712 22.1422 16.832L24.7556 19.4454C24.8763 19.5683 24.9435 19.7338 24.9427 19.9061C24.942 20.0783 24.8732 20.2433 24.7514 20.3651C24.6296 20.4868 24.4647 20.5556 24.2924 20.5564C24.1202 20.5572 23.9546 20.4899 23.8317 20.3692L21.2183 17.7558C21.127 17.6645 21.0648 17.5481 21.0396 17.4213C21.0144 17.2946 21.0273 17.1633 21.0768 17.0439C21.1262 16.9245 21.2099 16.8225 21.3174 16.7507C21.4248 16.6789 21.5511 16.6406 21.6803 16.6406Z" fill="#1A93FC"/>
<path d="M25.9532 13.3737C26.6478 13.3738 27.3267 13.5798 27.9042 13.9656C28.4817 14.3515 28.9318 14.8999 29.1976 15.5416C29.4635 16.1832 29.5331 16.8893 29.3977 17.5705C29.2623 18.2517 28.928 18.8775 28.437 19.3688L23.7545 24.0512C23.0958 24.7092 22.2027 25.0787 21.2716 25.0785C20.3405 25.0783 19.4476 24.7083 18.7891 24.05C18.1307 23.3916 17.7607 22.4987 17.7603 21.5676C17.76 20.6365 18.1294 19.7434 18.7873 19.0846L19.395 18.477C19.506 18.3679 19.6556 18.3071 19.8112 18.3079C19.9668 18.3086 20.1159 18.3707 20.2259 18.4807C20.3359 18.5908 20.3981 18.7398 20.3988 18.8954C20.3995 19.051 20.3387 19.2006 20.2297 19.3117L19.6224 19.919C19.1853 20.3564 18.9398 20.9494 18.9398 21.5678C18.9399 22.1861 19.1855 22.7791 19.6226 23.2164C20.0669 23.6402 20.6573 23.8766 21.2712 23.8766C21.8852 23.8766 22.4756 23.6402 22.9198 23.2164L27.4492 18.4807C27.8862 18.0433 25.9533 16.9361 25.9532 16.3178C25.9532 15.6995 23.1216 18.7061 22.6845 18.2688C23.2984 18.2688 22.2402 17.845 22.6845 18.2688C22.0705 18.2688 23.4698 18.002 23.4698 18.002L22.95 18.4807L23.4698 18.8954L21.8992 17.6422C22.7267 18.3079 21.7793 17.7405 21.7077 17.7702C21.6361 17.7998 21.5593 17.8151 21.4818 17.8151C21.4043 17.8151 21.3275 17.7998 21.2559 17.7702C21.1843 17.7405 21.1192 17.697 21.0644 17.6422C21.0096 17.5874 20.9661 17.5223 20.9365 17.4507C20.9068 17.3791 20.8915 17.3024 20.8915 17.2248C20.8915 17.1473 20.9068 17.0706 20.9365 16.999C20.9661 16.9274 21.0096 16.8623 21.0644 16.8075L23.4698 14.4021C23.7952 14.075 24.1822 13.8157 24.6085 13.6392C25.0348 13.4626 25.4918 13.3724 25.9532 13.3737Z" fill="#1A93FC"/>
</g>
<defs>
<clipPath id="clip0_633_2549">
<rect width="15.6804" height="15.6804" fill="white" transform="matrix(-1 0 0 -1 33.4406 27.7474)"/>
</clipPath>
</defs>
</svg>
